<?xml version="1.0" encoding="UTF-8" standalone="no"?>
<svg width="100%" height="931px" viewBox="0 0 682 931" preserveAspectRatio="none" version="1.1" xmlns="http://www.w3.org/2000/svg" xmlns:xlink="http://www.w3.org/1999/xlink">
    <!-- Generator: Sketch 49 (51002) - http://www.bohemiancoding.com/sketch -->
    <title>Group</title>
    <desc>Created with Sketch.</desc>
    <defs></defs>
    <g id="Page-1" stroke="none" stroke-width="1" fill="none" fill-rule="evenodd">
        <g id="Group">
            <rect id="Rectangle" fill="#D8D8D8" x="2" y="0" width="680" height="48"></rect>
            <rect id="Rectangle" fill="#D8D8D8" x="2" y="64" width="340" height="48"></rect>
            <rect id="Rectangle" fill="#EBEBEB" x="2" y="128" width="680" height="24"></rect>
            <rect id="Rectangle" fill="#EBEBEB" x="2" y="168" width="340" height="24"></rect>
            <rect id="Rectangle" fill="#EBEBEB" x="2" y="228" width="20" height="16"></rect>
            <rect id="Rectangle" fill="#EBEBEB" x="30" y="228" width="20" height="16"></rect>
            <rect id="Rectangle" fill="#EBEBEB" x="58" y="228" width="20" height="16"></rect>
            <rect id="Rectangle-2" fill="#D8D8D8" x="0" y="280" width="680" height="323"></rect>
            <rect id="Rectangle" fill="#EBEBEB" x="2" y="627" width="680" height="24"></rect>
            <rect id="Rectangle" fill="#EBEBEB" x="2" y="667" width="680" height="24"></rect>
            <rect id="Rectangle" fill="#EBEBEB" x="2" y="707" width="680" height="24"></rect>
            <rect id="Rectangle" fill="#EBEBEB" x="2" y="747" width="340" height="24"></rect>
            <rect id="Rectangle" fill="#EBEBEB" x="2" y="787" width="680" height="24"></rect>
            <rect id="Rectangle" fill="#EBEBEB" x="2" y="827" width="680" height="24"></rect>
            <rect id="Rectangle" fill="#EBEBEB" x="2" y="867" width="680" height="24"></rect>
            <rect id="Rectangle" fill="#EBEBEB" x="2" y="907" width="340" height="24"></rect>
        </g>
    </g>
</svg>