<?xml version="1.0" encoding="UTF-8" standalone="no"?>
<svg width="22px" height="18px" viewBox="0 0 22 18" version="1.1" xmlns="http://www.w3.org/2000/svg" xmlns:xlink="http://www.w3.org/1999/xlink">
    <!-- Generator: Sketch 49 (51002) - http://www.bohemiancoding.com/sketch -->
    <title>Group 9</title>
    <desc>Created with Sketch.</desc>
    <defs>
        <linearGradient x1="0%" y1="0%" x2="100%" y2="137.354031%" id="linearGradient-1">
            <stop stop-color="#0CEF8C" offset="0%"></stop>
            <stop stop-color="#6F5BED" offset="100%"></stop>
        </linearGradient>
    </defs>
    <g id="Page-1" stroke="none" stroke-width="1" fill="none" fill-rule="evenodd">
        <g id="controler" transform="translate(-29.000000, -51.000000)">
            <g id="tabGroup" transform="translate(16.000000, 48.000000)">
                <g id="xlarge">
                    <g id="Group-9" transform="translate(12.000000, 0.000000)">
                        <g id="icon-/-desktop">
                            <g id="desktop">
                                <rect id="Rectangle-20" x="0" y="0" width="24" height="24"></rect>
                                <path d="M3,5 L3,15 L21,15 L21,5 L3,5 Z M10,19 L14,19 L13.5,17 L10.5,17 L10,19 Z M8,19 L8.5,17 L3,17 C1.8954305,17 1,16.1045695 1,15 L1,5 C1,3.8954305 1.8954305,3 3,3 L21,3 C22.1045695,3 23,3.8954305 23,5 L23,15 C23,16.1045695 22.1045695,17 21,17 L15.5,17 L16,19 L18,19 L18,21 L6,21 L6,19 L8,19 Z" id="Combined-Shape" fill="url(#linearGradient-1)" fill-rule="nonzero"></path>
                            </g>
                        </g>
                    </g>
                </g>
            </g>
        </g>
    </g>
</svg>