<?xml version="1.0" encoding="UTF-8" standalone="no"?>
<svg width="18px" height="18px" viewBox="0 0 18 18" version="1.1" xmlns="http://www.w3.org/2000/svg" xmlns:xlink="http://www.w3.org/1999/xlink">
    <!-- Generator: Sketch 49 (51002) - http://www.bohemiancoding.com/sketch -->
    <title>Group</title>
    <desc>Created with Sketch.</desc>
    <defs>
        <path d="M13,0 L18,0 L18,5 L16,5 L16,2 L13,2 L13,0 Z M5,-1.33226763e-15 L5,2 L2,2 L2,5 L0,5 L0,0 L5,0 Z M13,18 L13,16 L16,16 L16,13 L18,13 L18,18 L13,18 Z M5,18 L0,18 L0,13 L2,13 L2,16 L5,16 L5,18 Z M0,8 L2,8 L2,10 L0,10 L0,8 Z M4,8 L6,8 L6,10 L4,10 L4,8 Z M8,8 L10,8 L10,10 L8,10 L8,8 Z M8,4 L10,4 L10,6 L8,6 L8,4 Z M8,12 L10,12 L10,14 L8,14 L8,12 Z M8,16 L10,16 L10,18 L8,18 L8,16 Z M8,0 L10,0 L10,2 L8,2 L8,0 Z M12,8 L14,8 L14,10 L12,10 L12,8 Z M16,8 L18,8 L18,10 L16,10 L16,8 Z" id="path-1"></path>
        <linearGradient x1="0%" y1="0%" x2="100%" y2="137.354031%" id="linearGradient-3">
            <stop stop-color="#0CEF8C" offset="0%"></stop>
            <stop stop-color="#6F5BED" offset="100%"></stop>
        </linearGradient>
    </defs>
    <g id="Symbols" stroke="none" stroke-width="1" fill="none" fill-rule="evenodd">
        <g id="icon-/-layoutActive" transform="translate(-3.000000, -3.000000)">
            <g id="Group" transform="translate(3.000000, 3.000000)">
                <mask id="mask-2" fill="white">
                    <use xlink:href="#path-1"></use>
                </mask>
                <use id="Combined-Shape" fill="#979797" fill-rule="nonzero" xlink:href="#path-1"></use>
                <g id="element-/-misc-/-color-/-1st&amp;2nd" mask="url(#mask-2)" fill="url(#linearGradient-3)">
                    <g transform="translate(-3.000000, -3.000000)" id="1st">
                        <rect x="0" y="0" width="24" height="24"></rect>
                    </g>
                </g>
            </g>
        </g>
    </g>
</svg>