<?xml version="1.0" encoding="UTF-8" standalone="no"?>
<svg width="10px" height="14px" viewBox="0 0 10 14" version="1.1" xmlns="http://www.w3.org/2000/svg" xmlns:xlink="http://www.w3.org/1999/xlink">
    <!-- Generator: Sketch 49 (51002) - http://www.bohemiancoding.com/sketch -->
    <title>Group 12</title>
    <desc>Created with Sketch.</desc>
    <defs>
        <linearGradient x1="0%" y1="0%" x2="100%" y2="137.354031%" id="linearGradient-1">
            <stop stop-color="#0CEF8C" offset="0%"></stop>
            <stop stop-color="#6F5BED" offset="100%"></stop>
        </linearGradient>
    </defs>
    <g id="Page-1" stroke="none" stroke-width="1" fill="none" fill-rule="evenodd">
        <g id="controler" transform="translate(-235.000000, -52.000000)">
            <g id="tabGroup" transform="translate(16.000000, 48.000000)">
                <g id="small" transform="translate(192.000000, 0.000000)">
                    <g id="Group-12" transform="translate(20.000000, 0.000000)">
                        <g id="icon-/-mobileActive">
                            <g id="Group-8">
                                <rect id="Rectangle-20" x="0" y="0" width="24" height="24"></rect>
                                <g id="Group-5" transform="translate(7.000000, 4.000000)" fill="url(#linearGradient-1)" fill-rule="nonzero">
                                    <path d="M8,9 L8,2 L2,2 L2,9 L8,9 Z M8,11 L2,11 L2,12 L8,12 L8,11 Z M2,0 L8,0 C9.1045695,-2.02906125e-16 10,0.8954305 10,2 L10,12 C10,13.1045695 9.1045695,14 8,14 L2,14 C0.8954305,14 1.3527075e-16,13.1045695 0,12 L0,2 C-1.3527075e-16,0.8954305 0.8954305,2.02906125e-16 2,0 Z" id="Combined-Shape"></path>
                                </g>
                            </g>
                        </g>
                    </g>
                </g>
            </g>
        </g>
    </g>
</svg>