<?xml version="1.0" encoding="UTF-8" standalone="no"?>
<svg width="14px" height="18px" viewBox="0 0 14 18" version="1.1" xmlns="http://www.w3.org/2000/svg" xmlns:xlink="http://www.w3.org/1999/xlink">
    <!-- Generator: Sketch 49 (51002) - http://www.bohemiancoding.com/sketch -->
    <title>Group 11</title>
    <desc>Created with Sketch.</desc>
    <defs>
        <linearGradient x1="0%" y1="0%" x2="100%" y2="137.354031%" id="linearGradient-1">
            <stop stop-color="#0CEF8C" offset="0%"></stop>
            <stop stop-color="#6F5BED" offset="100%"></stop>
        </linearGradient>
    </defs>
    <g id="Page-1" stroke="none" stroke-width="1" fill="none" fill-rule="evenodd">
        <g id="controler" transform="translate(-161.000000, -51.000000)">
            <g id="tabGroup" transform="translate(16.000000, 48.000000)">
                <g id="medium" transform="translate(128.000000, 0.000000)">
                    <g id="Group-11" transform="translate(12.000000, 0.000000)">
                        <g id="icon-/-tabletActive">
                            <g id="Group-5">
                                <rect id="Rectangle-20" x="0" y="0" width="24" height="24"></rect>
                                <path d="M7,3 L17,3 C18.1045695,3 19,3.8954305 19,5 L19,19 C19,20.1045695 18.1045695,21 17,21 L7,21 C5.8954305,21 5,20.1045695 5,19 L5,5 C5,3.8954305 5.8954305,3 7,3 Z M7,5 L7,19 L17,19 L17,5 L7,5 Z M7,16 L17,16 L17,18 L7,18 L7,16 Z" id="Combined-Shape" fill="url(#linearGradient-1)" fill-rule="nonzero"></path>
                            </g>
                        </g>
                    </g>
                </g>
            </g>
        </g>
    </g>
</svg>