<?xml version="1.0" encoding="UTF-8"?>
<svg width="608px" height="391px" viewBox="0 0 608 391" version="1.1" xmlns="http://www.w3.org/2000/svg" xmlns:xlink="http://www.w3.org/1999/xlink">
    <!-- Generator: Sketch 48.2 (47327) - http://www.bohemiancoding.com/sketch -->
    <title>Group</title>
    <desc>Created with Sketch.</desc>
    <defs></defs>
    <g id="Page-1" stroke="none" stroke-width="1" fill="none" fill-rule="evenodd">
        <g id="Group" fill="#D8D8D8" fill-rule="nonzero">
            <g id="wg-post-related-mockup">
                <rect id="Rectangle" x="0" y="0" width="80" height="80"></rect>
                <rect id="Rectangle-2" x="96" y="0" width="200" height="16"></rect>
                <rect id="Rectangle-2" x="96" y="32" width="200" height="16"></rect>
                <rect id="Rectangle-2" x="96" y="64" width="100" height="16"></rect>
                <rect id="Rectangle" x="0" y="104" width="80" height="80"></rect>
                <rect id="Rectangle-2" x="96" y="104" width="200" height="16"></rect>
                <rect id="Rectangle-2" x="96" y="136" width="200" height="16"></rect>
                <rect id="Rectangle-2" x="96" y="168" width="100" height="16"></rect>
                <rect id="Rectangle-2" x="0" y="208" width="296" height="16"></rect>
                <rect id="Rectangle-2" x="0" y="240" width="296" height="16"></rect>
                <rect id="Rectangle-2" x="0" y="272" width="148" height="16"></rect>
            </g>
            <g id="wg-post-related-mockup" transform="translate(312.000000, 0.000000)">
                <rect id="Rectangle" x="0" y="0" width="80" height="80"></rect>
                <rect id="Rectangle-2" x="96" y="0" width="200" height="16"></rect>
                <rect id="Rectangle-2" x="96" y="32" width="200" height="16"></rect>
                <rect id="Rectangle-2" x="96" y="64" width="100" height="16"></rect>
                <rect id="Rectangle" x="0" y="104" width="80" height="80"></rect>
                <rect id="Rectangle-2" x="96" y="104" width="200" height="16"></rect>
                <rect id="Rectangle-2" x="96" y="136" width="200" height="16"></rect>
                <rect id="Rectangle-2" x="96" y="168" width="100" height="16"></rect>
                <rect id="Rectangle-2" x="0" y="208" width="296" height="16"></rect>
                <rect id="Rectangle-2" x="0" y="240" width="296" height="16"></rect>
                <rect id="Rectangle-2" x="0" y="272" width="148" height="16"></rect>
            </g>
            <g id="wg-post-related-mockup" transform="translate(0.000000, 311.000000)">
                <rect id="Rectangle" x="0" y="0" width="80" height="80"></rect>
                <rect id="Rectangle-2" x="96" y="0" width="200" height="16"></rect>
                <rect id="Rectangle-2" x="96" y="32" width="200" height="16"></rect>
                <rect id="Rectangle-2" x="96" y="64" width="100" height="16"></rect>
            </g>
            <g id="wg-post-related-mockup" transform="translate(312.000000, 311.000000)">
                <rect id="Rectangle" x="0" y="0" width="80" height="80"></rect>
                <rect id="Rectangle-2" x="96" y="0" width="200" height="16"></rect>
                <rect id="Rectangle-2" x="96" y="32" width="200" height="16"></rect>
                <rect id="Rectangle-2" x="96" y="64" width="100" height="16"></rect>
            </g>
        </g>
    </g>
</svg>