<?xml version="1.0" encoding="UTF-8" standalone="no"?>
<svg width="304px" height="330px" viewBox="0 0 304 330" version="1.1" xmlns="http://www.w3.org/2000/svg" xmlns:xlink="http://www.w3.org/1999/xlink">
    <!-- Generator: Sketch 49 (51002) - http://www.bohemiancoding.com/sketch -->
    <title>new3</title>
    <desc>Created with Sketch.</desc>
    <defs></defs>
    <g id="Page-1" stroke="none" stroke-width="1" fill="none" fill-rule="evenodd">
        <g id="noSidebar" transform="translate(-1064.000000, -2174.000000)">
            <g id="moreStories" transform="translate(424.000000, 2102.000000)">
                <g id="new3" transform="translate(640.000000, 72.000000)">
                    <path d="M0,192 L304,192 L304,322 C304,326.418278 300.418278,330 296,330 L8,330 C3.581722,330 5.41083001e-16,326.418278 0,322 L0,192 Z" id="card" fill="#FFFFFF"></path>
                    <rect id="Rectangle-8" fill="#D8D8D8" x="16" y="215" width="267" height="13"></rect>
                    <rect id="Rectangle-8" fill="#D8D8D8" x="16" y="236" width="267" height="13"></rect>
                    <rect id="Rectangle-8" fill="#D8D8D8" x="16" y="257" width="147" height="13"></rect>
                    <rect id="Rectangle-8" fill="#D8D8D8" x="16" y="298" width="87" height="13"></rect>
                    <path d="M4,0 L300,0 C302.209139,-4.05812251e-16 304,1.790861 304,4 L304,192 L0,192 L0,4 C-2.705415e-16,1.790861 1.790861,4.05812251e-16 4,0 Z" id="img1" fill="#D8D8D8"></path>
                </g>
            </g>
        </g>
    </g>
</svg>